<?xml version="1.0" encoding="UTF-8" standalone="no"?>
<!-- Created with Inkscape (http://www.inkscape.org/) -->

<svg
  version="1.1"
  id="svg1"
  width="64"
  height="64"
  viewBox="0 0 64 64"
  xmlns="http://www.w3.org/2000/svg"
  xmlns:svg="http://www.w3.org/2000/svg">
  <defs id="defs1" />
  <!-- Styled like back icon: outline (#396cae), body (#3cb1dd), highlight (#b1f9ff) -->
  <g id="g1" transform="matrix(0.88572611,0,0,0.88573579,3.6565421,3.6560231)" style="stroke-linecap:round;stroke-linejoin:round">
    <!-- OUTLINE LAYER -->
    <path
      id="arc_outline"
      d="M 59.999902,32.879416 A 28.007214,28.002794 0 0 1 35.422235,59.790453 28.007214,28.002794 0 0 1 5.0597404,39.628983 28.007214,28.002794 0 0 1 20.335408,6.5411813 28.007214,28.002794 0 0 1 55.377829,16.565713"
      style="fill:none;stroke:#396cae;stroke-width:15.3;stroke-dasharray:none;stroke-opacity:1" />
    <path
      id="head_outline"
      d="M 56.619771,1.2512863 55.379872,16.569392 39.891021,17.44869"
      style="fill:none;stroke:#396cae;stroke-width:15.3;stroke-dasharray:none;stroke-opacity:1" />

    <!-- BODY SHADOW LAYER -->
    <path
      id="arc_body"
      d="M 59.999902,32.879416 A 28.007214,28.002794 0 0 1 35.422235,59.790453 28.007214,28.002794 0 0 1 5.0597404,39.628983 28.007214,28.002794 0 0 1 20.335408,6.5411813 28.007214,28.002794 0 0 1 55.377829,16.565713"
      style="fill:none;stroke:#3cb1dd;stroke-width:13.5;stroke-dasharray:none;stroke-opacity:1" />
    <path
      id="head_body"
      d="M 56.619771,1.2512863 55.379872,16.569392 39.891021,17.44869"
      style="fill:none;stroke:#3cb1dd;stroke-width:13.5;stroke-dasharray:none;stroke-opacity:1" />

    <!-- HIGHLIGHT LAYER -->
    <path
      id="arc_highlight"
      d="M 59.999902,32.879416 A 28.007214,28.002794 0 0 1 35.422235,59.790453 28.007214,28.002794 0 0 1 5.0597404,39.628983 28.007214,28.002794 0 0 1 20.335408,6.5411813 28.007214,28.002794 0 0 1 55.377829,16.565713"
      style="fill:none;stroke:#b1f9ff;stroke-width:10.2;stroke-dasharray:none;stroke-opacity:1" />
    <path
      id="head_highlight"
      d="M 56.619771,1.2512863 55.379872,16.569392 39.891021,17.44869"
      style="fill:none;stroke:#b1f9ff;stroke-width:10.2;stroke-dasharray:none;stroke-opacity:1" />
  </g>
</svg>
